<svg xmlns="http://www.w3.org/2000/svg" width="306.482" height="82.291" viewBox="0 0 81.09 21.773"><defs><path d="M-.363 33.977h265.865V166.75H-.363z" id="a"/></defs><g style="line-height:0%;-inkscape-font-specification:'Source Code Pro';white-space:pre;shape-inside:url(#a)" transform="translate(-1.642 -21.763)" aria-label="{fjson}" font-weight="700" font-size="19.756" font-family="Fira Code" letter-spacing="0" word-spacing="0" fill="#969696" stroke="none" stroke-width=".265"><path style="-inkscape-font-specification:'Fira Code Bold'" d="M9.09 21.895c-3.73 0-5.147.983-4.844 3.759l.304 2.877c.162 1.54-1.074 1.996-2.776 1.996v2.593c1.723 0 2.938.456 2.776 1.996l-.304 2.898c-.283 2.735 1.115 3.738 4.843 3.738v-2.229c-1.226 0-1.986-.263-1.884-1.286l.314-2.989c.243-2.3-.983-3.1-3.151-3.424 2.047-.304 3.394-1.155 3.15-3.425l-.313-2.988c-.102-1.024.648-1.287 1.884-1.287zM20.061 23.546c-2.917 0-4.457 1.611-4.457 3.729v1.56h-2.26v2.219h2.26v7.862h3.18v-7.862h3.152l.354-2.22h-3.505v-1.438c0-1.063.506-1.489 1.773-1.489.77 0 1.56.122 2.31.405l.881-2.087c-.952-.405-2.117-.679-3.688-.679zM31.449 23.03c-1.125 0-1.905.78-1.905 1.803s.78 1.814 1.905 1.814c1.104 0 1.884-.79 1.884-1.814 0-1.023-.78-1.803-1.884-1.803zm2.077 5.805h-7.072v2.219h3.87v4.944c0 3.13-1.702 4.224-4.964 4.964l.507 2.442c5.025-.983 7.659-2.938 7.659-7.609zM41.844 36.97c-1.257 0-2.33-.486-3.161-1.134l-1.611 1.803c1.114.973 2.705 1.621 4.792 1.621 2.745 0 5.086-1.195 5.086-3.556 0-2.107-1.358-2.817-3.445-3.404-2.107-.608-2.543-.83-2.543-1.388 0-.557.497-.83 1.54-.83 1.044 0 2.097.364 2.989.91l1.276-1.884c-1.043-.76-2.441-1.306-4.356-1.306-3.03 0-4.67 1.408-4.67 3.323 0 1.904 1.357 2.776 3.333 3.302 2.147.588 2.553.841 2.553 1.53 0 .679-.72 1.013-1.783 1.013zM54.346 27.802c-3.293 0-5.228 2.31-5.228 5.724 0 3.617 1.935 5.734 5.228 5.734 3.292 0 5.227-2.158 5.227-5.755 0-3.444-1.915-5.703-5.227-5.703zm0 2.36c1.306 0 1.924 1.023 1.924 3.343 0 2.402-.618 3.405-1.924 3.405-1.307 0-1.925-1.003-1.925-3.384 0-2.34.618-3.364 1.925-3.364zM61.843 38.916h3.201v-7.528c.608-.77 1.206-1.226 1.885-1.226.79 0 1.033.456 1.033 1.773v6.98h3.201v-7.902c0-2.036-1.124-3.211-2.958-3.211-1.368 0-2.39.526-3.343 1.6l-.223-1.246h-2.796zM75.287 21.895v2.229c1.226 0 1.986.263 1.884 1.287l-.314 2.988c-.243 2.29.983 3.1 3.161 3.425-2.057.304-3.404 1.144-3.16 3.424l.313 2.989c.102 1.023-.648 1.286-1.884 1.286v2.23c3.728 0 5.147-.983 4.843-3.76l-.304-2.877c-.162-1.54 1.074-1.996 2.776-1.996v-2.593c-1.723 0-2.938-.456-2.776-1.996l.304-2.898c.283-2.735-1.115-3.738-4.843-3.738z"/></g></svg>